PathFileType	4	(X/Y/Z)	C:\Users\WrightLab\Desktop\Jo\P1_boxCal22.trc
DataRate	CameraRate	NumFrames	NumMarkers	Units	OrigDataRate	OrigDataStartFrame	OrigNumFrames
100.00	100.00	       28	19	mm	100.00	493	       657
Frame#	Time	Headset_Front			Headset_Back			Headset_Left			Headset_Right			Left_Shoulder			Right_Shoulder			Sternum			C7			Left Elbow			Right Elbow			Left Wrist			Right Wrist			Left ASIS			Right ASIS			S2			Left Knee			Right Knee			Left Ankle			Right Ankle			
		X1	Y1	Z1	X2	Y2	Z2	X3	Y3	Z3	X4	Y4	Z4	X5	Y5	Z5	X6	Y6	Z6	X7	Y7	Z7	X8	Y8	Z8	X9	Y9	Z9	X10	Y10	Z10	X11	Y11	Z11	X12	Y12	Z12	X13	Y13	Z13	X14	Y14	Z14	X15	Y15	Z15	X16	Y16	Z16	X17	Y17	Z17	X18	Y18	Z18	X19	Y19	Z19	

493	4.920	-5.10577	1491.20020	1890.69971	392.32422	1024.76184	1704.93921													491.50909	859.27252	1784.49487	-48.27838	1503.66846	1750.66528	-145.06439	1055.57434	1562.81091				-243.72208	841.14764	1562.50110	315.50772	507.55829	1763.26978	-21.17104	935.92523	1812.32324	173.73643	947.82495	1860.19104	57.19189	1222.68652	1832.18640	-85.21166	1318.60107	1665.98572	134.53519	1325.75867	1600.68970	284.44583	1330.55188	1743.09314	147.51514	944.79138	1527.55225	
494	4.930	-9.07647	1492.41418	1898.38708	394.78613	1026.86267	1718.89307													491.72833	861.70428	1804.10632	-49.73142	1504.44873	1756.62744	-143.26620	1058.52393	1565.05872				-242.35355	844.60895	1559.89038	313.72916	506.99890	1767.75342	-23.91943	937.65179	1819.20959	171.23032	948.51648	1868.83350	54.89888	1224.02734	1840.06152	-85.11528	1320.55176	1672.29626	135.81512	1327.01575	1609.72913	283.09543	1332.23657	1755.81921	148.80341	945.71533	1535.96875	
495	4.940	-12.68507	1493.56140	1905.51074	393.87219	1029.41382	1735.64539													491.59244	864.95502	1822.13452	-51.47686	1505.58594	1765.87585	-141.88083	1060.84851	1569.02148				-240.96269	846.70184	1560.00293	313.35614	506.48318	1772.25000	-26.74357	939.80426	1825.49829	167.30911	949.67645	1878.72656	51.83480	1224.99927	1848.94629	-85.08504	1322.04590	1678.35437	136.51572	1328.15210	1621.06055	281.42105	1333.70740	1768.26331	149.21426	946.90533	1543.80371	
496	4.950	-16.80496	1493.98950	1913.06079	396.17776	1031.08411	1752.16675													490.85797	867.24377	1843.66907	-53.26491	1505.41626	1772.48669	-140.38609	1063.29626	1573.10303				-239.93175	849.14874	1558.72559	310.57144	506.91306	1778.50476	-29.56354	941.55121	1833.12964	163.74680	950.48615	1886.99890	49.30245	1225.97546	1857.33496	-85.31650	1322.86133	1685.26978	137.37874	1329.01318	1630.37610	279.61847	1334.66235	1780.95984	149.87329	948.05658	1552.10608	
497	4.960	-21.27941	1494.20679	1921.50696	396.51440	1032.88574	1767.57312													489.85522	869.66400	1863.84424	-54.51617	1506.02686	1778.49207	-139.20731	1065.71606	1576.15308				-238.67055	851.42413	1559.88245	308.06531	506.27969	1782.42432	-32.07660	942.05054	1839.90503	160.82246	950.48157	1895.55688	46.39151	1225.92261	1865.04810	-85.44717	1323.75220	1691.77637	137.74693	1329.30896	1640.42346	277.48828	1335.46216	1792.97888	150.04213	948.01282	1561.39172	
498	4.970	-25.33723	1494.66785	1928.65576	396.51126	1034.15747	1784.98328													489.37387	872.78223	1883.49365				-138.82085	1067.64587	1574.68982				-237.56175	852.23267	1560.28796	306.48904	505.93689	1789.22241	-34.61361	943.04510	1846.72375	157.53369	950.60040	1904.73389	42.85335	1226.30701	1874.89661	-85.91175	1323.91748	1698.79480				274.82516	1335.77014	1805.93567	149.98065	948.06714	1569.08972	
499	4.980	-29.09170	1493.91736	1935.51123	396.02753	1034.82202	1799.13550													488.53934	873.55609	1901.52881	161.15497	1511.96387	1851.65649	-136.33813	1068.29163	1573.68396				-235.97394	853.12756	1559.99451	303.90128	505.43765	1795.37732	-37.26530	942.36700	1853.14417	154.17081	949.88477	1912.84399	39.84907	1225.50073	1882.91650	-86.28521	1323.46777	1706.93042				272.34543	1335.55408	1817.74646	149.90828	948.09454	1577.24854	
500	4.990	-33.70913	1493.67310	1943.31665	395.25061	1034.94922	1816.53296													486.75797	875.70599	1922.13879				-137.39847	1069.45422	1582.02185				-235.38225	853.20868	1561.90100	302.39133	504.10510	1801.85754	-39.90536	941.67719	1859.74585	151.05548	950.28436	1922.31738	36.27335	1224.28992	1890.89734	-87.42492	1322.92542	1713.18982				269.73129	1335.08264	1830.50244	149.79170	947.45343	1585.04578	
501	5.000	-37.90855	1492.69617	1950.82788	395.61163	1035.02417	1833.09265													484.63269	876.48712	1938.50037	154.95609	1510.25073	1873.01599	-137.36591	1069.40845	1586.06018				-234.72893	854.39130	1564.17603	299.40668	502.75040	1807.80212	-42.50028	940.32849	1866.20190	147.85138	948.68256	1930.66541	32.23239	1222.61963	1899.44458	-88.26231	1321.83484	1721.16113				266.96378	1334.15710	1843.11096	148.22060	946.80933	1593.09509	
502	5.010	-42.11581	1491.25073	1958.05261	393.10696	1033.76746	1847.97510													482.56497	878.06915	1957.23718	152.61032	1508.78748	1883.38379							-234.94221	853.60480	1566.91821	297.20224	500.29013	1813.39954	-45.76424	938.77185	1873.97107	144.16914	946.36450	1938.82251	29.13619	1219.59119	1907.11121	-89.60010	1320.55310	1727.60645				263.69174	1332.83496	1855.94312	147.29443	946.63776	1600.22668	
503	5.020	-46.78229	1490.38794	1965.43237	392.48737	1032.86011	1865.35938													480.23846	878.57520	1975.42078	148.62886	1507.06018	1893.30554	-136.15544	1066.66541	1602.57776				-235.11919	853.66052	1570.88684	295.13202	499.32886	1821.38062	-48.39344	936.26978	1880.71130	141.21503	944.49414	1947.31384	24.40209	1218.02478	1916.95691	-91.05568	1318.81641	1735.77991				260.51825	1330.98193	1867.30481	146.36221	945.09265	1607.95996	
504	5.030	-51.04683	1489.11633	1972.38440	389.60913	1031.22095	1878.51196													477.40839	878.14716	1992.66357	145.48364	1505.35547	1904.32007	-136.46408	1065.21936	1610.20947				-235.20338	852.09723	1574.34167	293.34146	496.38153	1826.74316	-51.45916	932.88513	1887.42749	137.41541	941.79480	1957.03491	21.01714	1214.53479	1924.81799	-92.88036	1316.65381	1743.23718				256.93805	1328.89819	1880.12793	145.62192	943.16071	1615.73999	
505	5.040	-55.72283	1487.91406	1979.78027	387.33755	1029.95886	1893.14172													473.98392	877.62842	2009.31702	141.64096	1502.59546	1912.88525							-234.68721	851.00952	1578.40955	291.74301	493.87799	1832.60571	-54.80872	929.18945	1894.46619	133.66422	937.68304	1964.80054	16.39826	1211.22754	1933.85925	-93.80356	1313.86157	1752.63330				253.30992	1326.62366	1892.31213	144.46927	942.04822	1623.88086	
506	5.050	-60.60043	1486.45447	1987.78369	385.67801	1026.98181	1908.78748													470.68594	876.94458	2024.97876	137.98192	1500.76257	1923.95581							-234.62036	848.88702	1582.50940	289.96078	492.12003	1837.89294	-58.46788	925.48718	1902.22021	129.54015	934.08673	1972.75549	12.23081	1207.85718	1942.59167	-97.26508	1311.70630	1759.28296				249.39420	1324.22571	1903.46912	143.52200	940.71814	1633.64160	
507	5.060	-65.54189	1484.86926	1995.34595	381.14453	1025.74561	1922.23584													466.86182	875.28442	2040.35229	133.72293	1498.69775	1933.83838							-235.19756	847.75818	1587.51099	287.56592	489.92392	1842.19434	-62.05464	921.41376	1909.18542	125.41408	929.52832	1980.75281	7.82966	1204.54297	1951.32532	-100.35650	1308.78699	1767.14502				245.65477	1321.59778	1915.56299	140.50177	938.64709	1642.05493	
508	5.070	-70.10305	1483.49438	2002.05054	377.75778	1023.62885	1937.11865													462.64835	873.34955	2054.93677	129.52002	1496.20007	1942.32483							-235.09587	845.01776	1592.65991	285.33871	487.78342	1846.31531	-66.75650	917.19678	1918.12061	121.20174	926.38190	1990.78845	3.51787	1200.71985	1960.17603	-102.56580	1305.36365	1776.85583				241.36794	1318.56580	1926.59705	139.37349	936.58990	1651.16345	
509	5.080	-74.98132	1481.56653	2009.83215	374.12640	1021.34790	1952.47302													456.88437	872.42889	2067.73364	125.39233	1493.90967	1952.27905							-234.95155	842.19330	1598.96033	283.02551	485.67908	1850.33875	-70.76742	913.26288	1926.07971	117.29017	922.11542	1999.58899	-1.11539	1197.29529	1968.95789	-106.83347	1303.24768	1783.88245				237.02515	1315.82825	1937.56494	137.49860	934.05493	1662.53027	
510	5.090	-80.20404	1480.17688	2016.65112	368.64667	1017.70618	1961.81177													451.66013	869.77368	2080.72095	120.48941	1492.11182	1962.54333							-234.98718	839.48053	1605.54382	281.43527	484.14774	1855.39331	-74.53963	908.91949	1933.56860	112.70057	918.60242	2009.57349	-5.90997	1194.20911	1978.56958	-110.41767	1300.51099	1792.31567				232.21387	1313.20837	1948.16309	135.29314	932.30829	1671.84485	
511	5.100	-85.62464	1477.99109	2023.40466	363.79346	1015.69427	1976.44604													446.18625	867.69946	2093.77368	115.55180	1489.79907	1971.64709							-235.13557	836.36615	1611.43555	279.52783	483.50528	1861.92383	-79.04857	905.73456	1942.29114	107.94135	915.14355	2018.32373	-10.21430	1190.86743	1986.87976	-114.23103	1297.93652	1800.57202				227.10741	1310.61389	1958.57092	131.57133	930.40295	1681.53455	
512	5.110	-91.21149	1476.78674	2030.25330																439.92862	864.87756	2105.48779	111.01588	1487.06848	1979.65637	-145.49634	1042.79224	1676.50708				-235.69197	833.42596	1618.45142	277.48636	482.37860	1866.71826	-82.69453	902.05670	1950.65686	103.16327	911.76434	2027.88452	-15.37822	1188.09741	1996.10010	-118.51105	1295.04443	1809.53040				222.07043	1307.89331	1968.90637	128.78249	927.66022	1691.81421	
513	5.120	-96.78515	1475.03064	2037.70630	-91.27284	500.05927	1945.18274													433.26398	862.55695	2117.02856	105.85798	1484.44629	1988.48804							-236.15935	830.18372	1626.75598	274.88156	481.54300	1871.86292	-87.34754	900.13635	1959.87146	98.25037	909.49866	2038.03247	-20.83656	1186.08203	2005.51782	-123.00594	1292.46118	1817.75232				217.10710	1305.21863	1979.27991	124.88757	924.59625	1703.09204	
514	5.130	-102.62768	1474.07751	2044.35535																425.39417	859.55560	2126.80566	100.15054	1482.45142	1997.70190							-237.20375	826.86963	1633.51160	271.46002	481.41473	1876.66064	-91.43297	897.44659	1968.44568	93.20475	907.82550	2048.61670	-26.44148	1184.33459	2014.65466	-127.91026	1289.92834	1826.03308				211.90309	1302.92383	1988.56934	120.62685	923.05505	1711.59521	
515	5.140	-109.06392	1472.97339	2051.67383	-100.19192	496.72046	1965.49268													417.79132	856.56140	2136.29175	94.55539	1480.17358	2006.45264							-237.73967	822.77545	1642.26001	268.93970	481.26709	1883.06042	-96.35822	896.03979	1978.39697	87.86977	906.44519	2059.21362	-32.10696	1182.44812	2023.27417	-133.24849	1287.83765	1833.28711				205.71292	1300.59729	1997.94983	117.17065	920.11804	1722.86755	
516	5.150	-115.15329	1472.45752	2059.07739																410.26810	853.30505	2146.86182	88.71788	1478.22583	2015.03003							-238.69193	818.04395	1650.65906	266.68439	480.85153	1889.47998	-101.57802	894.54315	1987.86011	82.03977	905.80066	2069.74243	-38.92424	1181.55835	2033.32507	-138.91434	1285.51355	1841.28735				199.85318	1298.56274	2007.20813	112.98235	917.72168	1731.59436	
517	5.160	-121.41061	1471.61877	2065.13940	-244.59386	242.97012	71.18593													401.52548	850.02899	2154.47827	82.77557	1476.72961	2023.14673							-240.32932	814.13885	1660.75732	262.81406	481.27798	1897.63147	-107.19291	892.82642	1997.76196	76.05779	905.04242	2080.19897	-45.38819	1180.17920	2040.95947	-145.45943	1283.04736	1849.02515	-110.43638	493.74164	1987.37524	193.78903	1296.32324	2016.10754				
518	5.170	-127.82034	1471.79724	2072.08496																392.78888	846.79700	2164.03369	76.65739	1474.68188	2031.14990							-241.89091	809.70276	1670.99219	258.38516	482.04276	1907.53821	-113.22538	891.38159	2007.42297	70.01320	904.54138	2090.52979	-52.75332	1179.04553	2049.86060	-151.06357	1281.41650	1856.55811	-116.42874	491.73965	1999.44604	186.58185	1294.70850	2025.58337				
519	5.180	-134.55846	1471.82361	2078.50366	98.68754	911.40790	1765.94495													383.80609	844.09326	2172.64063	70.56768	1472.30151	2038.73877							-244.34799	805.30792	1682.19067	255.25867	481.91757	1918.79004	-119.27573	890.18207	2017.43860	63.70224	904.12866	2101.06738	-59.79224	1178.00354	2058.27148	-157.39984	1279.69946	1864.12280	-122.66350	489.49158	2011.40051	179.92767	1293.17639	2033.44971	-71.23332	143.86858	2223.41284	
520	5.190	-140.77031	1472.02368	2084.78394																374.36984	841.22321	2180.34790	63.87358	1471.82007	2047.27209							-246.50311	801.30615	1691.54724	251.94283	481.26474	1933.47168	-125.82546	889.34338	2028.10828	56.68787	904.40344	2112.05054	-68.15419	1177.21130	2066.51611	-164.19792	1277.87610	1871.20520	-129.37494	487.35068	2022.91223	172.50673	1291.57361	2042.36902				
